<svg width="10" height="11" viewBox="0 0 10 11" fill="none" xmlns="http://www.w3.org/2000/svg">
<path d="M6.77778 2.86667V2.49333C6.77778 1.97062 6.77778 1.70926 6.68089 1.50961C6.59567 1.33399 6.45969 1.19121 6.29244 1.10173C6.10229 1 5.85338 1 5.35556 1H4.64444C4.14662 1 3.89771 1 3.70756 1.10173C3.54031 1.19121 3.40433 1.33399 3.31911 1.50961C3.22222 1.70926 3.22222 1.97062 3.22222 2.49333V2.86667M4.11111 5.43333V7.76667M5.88889 5.43333V7.76667M1 2.86667H9M8.11111 2.86667V8.09333C8.11111 8.87741 8.11111 9.26944 7.96579 9.56892C7.83796 9.83235 7.63398 10.0465 7.3831 10.1807C7.09788 10.3333 6.72451 10.3333 5.97778 10.3333H4.02222C3.27549 10.3333 2.90212 10.3333 2.6169 10.1807C2.36602 10.0465 2.16204 9.83235 2.03421 9.56892C1.88889 9.26944 1.88889 8.87741 1.88889 8.09333V2.86667" stroke="currentColor" stroke-opacity="0.64" stroke-linecap="round" stroke-linejoin="round"/>
</svg>
