<svg width="11" height="11" viewBox="0 0 11 11" fill="none" xmlns="http://www.w3.org/2000/svg">
<path d="M5.17468 1.98398H3.22649C2.44715 1.98398 2.05748 1.98398 1.7598 2.13565C1.49797 2.26907 1.28508 2.48195 1.15167 2.74379C1 3.04146 1 3.43113 1 4.21048V8.10684C1 8.88619 1 9.27586 1.15167 9.57353C1.28508 9.83537 1.49797 10.0482 1.7598 10.1817C2.05748 10.3333 2.44715 10.3333 3.22649 10.3333H7.12286C7.9022 10.3333 8.29188 10.3333 8.58955 10.1817C8.85139 10.0482 9.06427 9.83537 9.19768 9.57353C9.34935 9.27586 9.34935 8.88619 9.34935 8.10684V6.15866M3.78311 7.55022H4.55985C4.78676 7.55022 4.90021 7.55022 5.00698 7.52458C5.10164 7.50186 5.19213 7.46437 5.27513 7.41351C5.36875 7.35614 5.44898 7.27591 5.60943 7.11547L10.0451 2.67976C10.4294 2.29549 10.4294 1.67247 10.0451 1.2882C9.66086 0.903933 9.03784 0.903933 8.65357 1.2882L4.21786 5.72391C4.05741 5.88436 3.97718 5.96458 3.91981 6.0582C3.86895 6.1412 3.83146 6.2317 3.80874 6.32636C3.78311 6.43312 3.78311 6.54658 3.78311 6.77349V7.55022Z" stroke="#3F4350" stroke-opacity="0.64" stroke-linecap="round" stroke-linejoin="round"/>
</svg>
