<svg width="12" height="12" viewBox="0 0 12 12" fill="none" xmlns="http://www.w3.org/2000/svg">
<path d="M6.00002 0.166504C2.79169 0.166504 0.166687 2.7915 0.166687 5.99984C0.166687 9.20817 2.79169 11.8332 6.00002 11.8332C9.20835 11.8332 11.8334 9.20817 11.8334 5.99984C11.8334 2.7915 9.20835 0.166504 6.00002 0.166504ZM10.6667 6.2915C10.4917 6.52484 9.67502 6.9915 8.33335 7.22484C8.33335 6.8165 8.33335 6.40817 8.33335 5.99984C8.33335 5.70817 8.33335 5.47484 8.33335 5.2415C9.03335 5.12484 9.73335 4.94984 10.2584 4.7165C10.3167 4.65817 10.4334 4.65817 10.4917 4.59984C10.6084 5.00817 10.6667 5.53317 10.6667 5.99984C10.6667 6.1165 10.6667 6.17484 10.6667 6.2915ZM5.12502 8.5665C5.41669 8.5665 5.70835 8.62484 6.00002 8.62484C6.29169 8.62484 6.58335 8.62484 6.87502 8.5665C6.58335 9.73317 6.23335 10.4332 6.00002 10.6082C5.76669 10.4332 5.35835 9.73317 5.12502 8.5665ZM6.00002 7.45817C5.59169 7.45817 5.24169 7.45817 4.89169 7.39984C4.89169 6.9915 4.83335 6.52484 4.83335 5.99984C4.83335 5.7665 4.83335 5.5915 4.83335 5.35817C5.24169 5.4165 5.59169 5.4165 6.00002 5.4165C6.40835 5.4165 6.75835 5.4165 7.16669 5.35817C7.16669 5.5915 7.16669 5.7665 7.16669 5.99984C7.16669 6.52484 7.10835 6.9915 7.10835 7.39984C6.75835 7.45817 6.40835 7.45817 6.00002 7.45817ZM7.05002 4.1915C6.70002 4.24984 6.35002 4.24984 6.00002 4.24984C5.65002 4.24984 5.30002 4.24984 4.95002 4.1915C5.18335 2.55817 5.70835 1.5665 6.00002 1.33317C6.29169 1.5665 6.81669 2.55817 7.05002 4.1915ZM9.96669 3.54984C9.55835 3.72484 8.97502 3.95817 8.21669 4.07484C8.10002 3.1415 7.86669 2.2665 7.57502 1.62484C8.56669 1.97484 9.38335 2.6165 9.96669 3.54984ZM2.03335 3.54984C2.61669 2.67484 3.43335 1.97484 4.48335 1.62484C4.19169 2.2665 3.95835 3.08317 3.78335 4.07484C3.02502 3.89984 2.44169 3.72484 2.03335 3.54984ZM1.56669 4.59984C1.62502 4.65817 1.68335 4.65817 1.80002 4.7165C2.32502 4.94984 2.96669 5.12484 3.72502 5.2415C3.66669 5.47484 3.66669 5.70817 3.66669 5.99984C3.66669 6.40817 3.66669 6.8165 3.72502 7.22484C2.38335 6.9915 1.56669 6.52484 1.39169 6.2915C1.39169 6.17484 1.39169 6.1165 1.39169 5.99984C1.33335 5.53317 1.39169 5.00817 1.56669 4.59984ZM1.74169 7.8665C2.32502 8.09984 3.08335 8.33317 3.90002 8.44984C4.01669 9.20817 4.25002 9.84984 4.48335 10.3748C3.25835 9.96651 2.26669 9.03317 1.74169 7.8665ZM10.2584 7.8665C9.73335 9.03317 8.74169 9.96651 7.51669 10.3748C7.75002 9.84984 7.98335 9.20817 8.10002 8.44984C8.91669 8.33317 9.67502 8.15817 10.2584 7.8665Z" fill="#3F4350"/>
</svg>
