<svg width="10" height="12" viewBox="0 0 10 12" fill="none" xmlns="http://www.w3.org/2000/svg">
<path d="M8.49998 10.6665V5.4165H1.49998V10.6665H8.49998ZM8.49998 4.24984C9.14165 4.24984 9.66665 4.77484 9.66665 5.4165V10.6665C9.66665 11.3082 9.14165 11.8332 8.49998 11.8332H1.49998C0.858313 11.8332 0.333313 11.3082 0.333313 10.6665V5.4165C0.333313 4.77484 0.858313 4.24984 1.49998 4.24984H2.08331V3.08317C2.08331 1.44984 3.36665 0.166504 4.99998 0.166504C6.63331 0.166504 7.91665 1.44984 7.91665 3.08317V4.24984H8.49998ZM4.99998 1.33317C4.00831 1.33317 3.24998 2.0915 3.24998 3.08317V4.24984H6.74998V3.08317C6.74998 2.0915 5.99165 1.33317 4.99998 1.33317Z" fill="#3F4350"/>
</svg>
