<svg width="33" height="33" viewBox="0 0 33 33" fill="none" xmlns="http://www.w3.org/2000/svg">
<path d="M31.5773 29.0198L24.6565 22.099C26.433 19.7835 27.5 16.8942 27.5 13.75C27.5 6.15633 21.3437 0 13.75 0C6.15633 0 0 6.15633 0 13.75C0 21.3437 6.15633 27.5 13.75 27.5C16.8813 27.5 19.7597 26.4403 22.0715 24.6785L28.9923 31.5517C29.7073 32.263 30.8623 32.263 31.5773 31.5517C32.252 30.8422 32.252 29.7293 31.5773 29.0198ZM3.66667 13.75C3.66667 8.18033 8.18033 3.66667 13.75 3.66667C19.3197 3.66667 23.8333 8.18033 23.8333 13.75C23.8333 19.3197 19.3197 23.8333 13.75 23.8333C8.18033 23.8333 3.66667 19.3197 3.66667 13.75Z" fill="currentColor"/>
</svg>
