<svg width="24" height="24" viewBox="0 0 24 24" fill="none" xmlns="http://www.w3.org/2000/svg">
<path fill-rule="evenodd" clip-rule="evenodd" d="M15.4248 10.1717C15.4248 10.1717 15.4559 11.5363 14.5096 12.4634C13.5632 13.3904 12.4008 13.3057 11.6446 13.0497C10.8884 12.7936 9.91359 12.1549 9.72489 10.8437C9.53632 9.53238 10.3898 8.46713 10.3898 8.46713L12.2498 6.15412L13.3331 4.83309L14.2629 3.68188C14.2629 3.68188 14.6896 3.11029 14.8113 2.99232C14.8354 2.96895 14.8601 2.95361 14.8843 2.9418L14.902 2.93279L14.9051 2.93157C14.9563 2.90954 15.0152 2.90479 15.072 2.92403C15.1277 2.9429 15.1708 2.98112 15.198 3.02824L15.2038 3.03737L15.2088 3.04784C15.222 3.07292 15.2331 3.10153 15.2383 3.13683C15.2632 3.30447 15.255 4.01777 15.255 4.01777L15.2943 5.49695L15.3524 7.2044L15.4248 10.1717ZM17.8325 3.90867C21.2725 6.41232 22.8502 10.9559 21.4157 15.2055C19.6501 20.4353 13.9909 23.2398 8.77554 21.4694C3.56021 19.6989 0.763636 14.0241 2.52911 8.79424C3.96607 4.53772 7.98216 1.8881 12.239 2.00363L10.8745 3.62026C8.34917 4.07814 6.16873 5.8075 5.31172 8.34622C4.0366 12.1233 6.17382 16.2617 10.0854 17.5895C13.9968 18.9173 18.2015 16.9318 19.4766 13.1547C20.3308 10.6244 19.6535 7.93217 17.9375 6.03115L17.8325 3.90867Z" fill="currentColor"/>
</svg>
