<svg width="4" height="10" viewBox="0 0 4 10" fill="none" xmlns="http://www.w3.org/2000/svg">
<path d="M1.99899 7.4146C2.32539 7.4146 2.60379 7.5346 2.83419 7.7746C3.07419 8.005 3.19419 8.2834 3.19419 8.6098C3.19419 8.9362 3.07419 9.2194 2.83419 9.4594C2.60379 9.6898 2.32539 9.805 1.99899 9.805C1.67259 9.805 1.38939 9.6898 1.14939 9.4594C0.918993 9.2194 0.803793 8.9362 0.803793 8.6098C0.803793 8.2834 0.918993 8.005 1.14939 7.7746C1.38939 7.5346 1.67259 7.4146 1.99899 7.4146ZM1.99899 3.8146C2.32539 3.8146 2.60379 3.9346 2.83419 4.1746C3.07419 4.405 3.19419 4.6834 3.19419 5.0098C3.19419 5.3362 3.07419 5.6194 2.83419 5.8594C2.60379 6.0898 2.32539 6.205 1.99899 6.205C1.67259 6.205 1.38939 6.0898 1.14939 5.8594C0.918993 5.6194 0.803793 5.3362 0.803793 5.0098C0.803793 4.6834 0.918993 4.405 1.14939 4.1746C1.38939 3.9346 1.67259 3.8146 1.99899 3.8146ZM1.99899 0.214605C2.32539 0.214605 2.60379 0.334604 2.83419 0.574604C3.07419 0.805005 3.19419 1.0834 3.19419 1.4098C3.19419 1.7362 3.07419 2.0194 2.83419 2.2594C2.60379 2.4898 2.32539 2.605 1.99899 2.605C1.67259 2.605 1.38939 2.4898 1.14939 2.2594C0.918993 2.0194 0.803793 1.7362 0.803793 1.4098C0.803793 1.0834 0.918993 0.805005 1.14939 0.574604C1.38939 0.334604 1.67259 0.214605 1.99899 0.214605Z" fill="currentColor"/>
</svg>
