<svg width="24" height="24" viewBox="0 0 24 24" fill="none" xmlns="http://www.w3.org/2000/svg">
<path d="M16.4959 9.3746H22.3271C22.5916 9.3746 22.8454 9.4797 23.0325 9.66678C23.2195 9.85387 23.3246 10.1076 23.3246 10.3722V15.6836C23.3246 17.7084 21.6833 19.3495 19.6585 19.3495H19.6413C17.6165 19.3501 15.9749 17.7089 15.9746 15.6841V9.89589C15.9746 9.60793 16.2079 9.3746 16.4959 9.3746ZM20.437 8.32475C21.0636 8.32475 21.6645 8.07583 22.1076 7.63277C22.5507 7.1897 22.7996 6.58877 22.7996 5.96218C22.7996 5.33559 22.5507 4.73466 22.1076 4.29159C21.6645 3.84852 21.0636 3.59961 20.437 3.59961C19.8104 3.59961 19.2095 3.84852 18.7664 4.29159C18.3234 4.73466 18.0745 5.33559 18.0745 5.96218C18.0745 6.58877 18.3234 7.1897 18.7664 7.63277C19.2095 8.07583 19.8104 8.32475 20.437 8.32475Z" fill="currentColor"/>
<path d="M13.0872 8.32511C14.9718 8.32511 16.4995 6.79715 16.4995 4.91229C16.4995 3.02796 14.9718 1.5 13.0872 1.5C11.2026 1.5 9.67491 3.0277 9.67491 4.91256C9.67491 6.79715 11.2026 8.32511 13.0872 8.32511ZM17.6373 9.37497H8.01194C7.75049 9.38138 7.50228 9.4913 7.32182 9.68058C7.14136 9.86987 7.04341 10.123 7.04948 10.3845V16.4428C6.97353 19.7091 9.55785 22.4201 12.8245 22.5C16.0911 22.4201 18.6757 19.7091 18.5995 16.4425V10.3845C18.6055 10.1231 18.5075 9.86998 18.327 9.68075C18.1466 9.49152 17.8984 9.38164 17.637 9.37523L17.6373 9.37497Z" fill="currentColor"/>
<path opacity="0.1" d="M13.3503 9.375V17.8644C13.349 18.0547 13.2915 18.2405 13.185 18.3983C13.0785 18.5561 12.9278 18.6789 12.7517 18.7514C12.6373 18.8 12.514 18.825 12.3894 18.825H7.51206C7.44303 18.6529 7.38176 18.4777 7.32841 18.3001C7.14459 17.6976 7.0508 17.0714 7.05008 16.4415V10.3832C7.04393 10.1222 7.14169 9.8693 7.32186 9.68025C7.50204 9.4912 7.74989 9.38141 8.01097 9.375H13.3503Z" fill="black"/>
<path opacity="0.2" d="M12.8251 9.375V18.3893C12.8251 18.5136 12.8001 18.6369 12.7517 18.7514C12.6792 18.9275 12.5563 19.0782 12.3985 19.1847C12.2406 19.2912 12.0548 19.3487 11.8644 19.3499H7.75891C7.66922 19.1785 7.58686 19.0034 7.51206 18.825C7.44152 18.6534 7.38022 18.4782 7.32841 18.3001C7.14459 17.6976 7.0508 17.0714 7.05008 16.4415V10.3832C7.04393 10.1222 7.14169 9.8693 7.32186 9.68025C7.50204 9.4912 7.74989 9.38141 8.01097 9.375H12.8251Z" fill="black"/>
<path opacity="0.2" d="M12.8251 9.375V17.3392C12.8232 17.5934 12.7214 17.8367 12.5416 18.0164C12.3619 18.1962 12.1186 18.2981 11.8644 18.3001H7.32841C7.14459 17.6976 7.0508 17.0714 7.05008 16.4415V10.3832C7.04393 10.1222 7.14169 9.8693 7.32186 9.68025C7.50204 9.4912 7.74989 9.38141 8.01097 9.375H12.8251Z" fill="black"/>
<path opacity="0.2" d="M12.3001 9.375V17.3392C12.2982 17.5934 12.1964 17.8367 12.0167 18.0164C11.837 18.1962 11.5937 18.2981 11.3395 18.3001H7.32841C7.14459 17.6976 7.0508 17.0714 7.05008 16.4415V10.3832C7.04393 10.1222 7.14169 9.8693 7.32186 9.68025C7.50204 9.4912 7.74989 9.38141 8.01097 9.375H12.3001Z" fill="black"/>
<path opacity="0.1" d="M13.3501 6.66109V8.31469C13.2606 8.3199 13.1769 8.3251 13.0874 8.3251C12.9982 8.3251 12.9142 8.3199 12.8249 8.31469C12.6477 8.30292 12.472 8.2748 12.3 8.23067C11.7759 8.10653 11.2886 7.8601 10.878 7.51152C10.4674 7.16295 10.1451 6.72213 9.93757 6.22512C9.86512 6.05584 9.80885 5.88008 9.76953 5.7002H12.3892C12.6438 5.70115 12.8876 5.8027 13.0676 5.98269C13.2476 6.16269 13.3492 6.40654 13.3501 6.66109Z" fill="black"/>
<path opacity="0.2" d="M12.8249 7.1855V8.31444C12.6477 8.30258 12.4719 8.27437 12.2999 8.23016C11.7758 8.10602 11.2885 7.85959 10.8779 7.51101C10.4673 7.16243 10.1451 6.72162 9.9375 6.22461H11.8642C12.1188 6.22557 12.3626 6.32712 12.5425 6.50713C12.7225 6.68713 12.824 6.93098 12.8249 7.1855Z" fill="black"/>
<path opacity="0.2" d="M12.8249 7.1855V8.31444C12.6477 8.30258 12.4719 8.27437 12.2999 8.23016C11.7758 8.10602 11.2885 7.85959 10.8779 7.51101C10.4673 7.16243 10.1451 6.72162 9.9375 6.22461H11.8642C12.1188 6.22557 12.3626 6.32712 12.5425 6.50713C12.7225 6.68713 12.824 6.93098 12.8249 7.1855Z" fill="black"/>
<path opacity="0.2" d="M12.2999 7.1855V8.23016C11.7758 8.106 11.2886 7.85956 10.878 7.51099C10.4674 7.16241 10.1451 6.72161 9.9375 6.22461H11.3393C11.5938 6.22564 11.8376 6.32721 12.0175 6.5072C12.1975 6.68719 12.299 6.931 12.2999 7.1855Z" fill="black"/>
<path d="M1.71246 6.22487H11.3375C11.5927 6.22487 11.8375 6.32624 12.018 6.50667C12.1985 6.68711 12.2999 6.93185 12.3 7.18707V16.8124C12.3 17.0677 12.1986 17.3125 12.0181 17.493C11.8376 17.6735 11.5928 17.7749 11.3375 17.7749H1.71246C1.4572 17.7749 1.21239 17.6735 1.0319 17.493C0.851401 17.3125 0.75 17.0677 0.75 16.8124V7.18707C0.75 6.93181 0.851401 6.687 1.0319 6.50651C1.21239 6.32601 1.4572 6.22461 1.71246 6.22461V6.22487Z" fill="url(#paint0_linear_1739_12094)"/>
<path d="M9.05731 9.88837H7.13317V15.1278H5.90747V9.88837H3.99219V8.87207H9.05731V9.88837Z" fill="white"/>
<defs>
<linearGradient id="paint0_linear_1739_12094" x1="2.75633" y1="5.47285" x2="10.2934" y2="18.5266" gradientUnits="userSpaceOnUse">
<stop stop-color="currentColor"/>
<stop offset="0.5" stop-color="currentColor"/>
<stop offset="1" stop-color="currentColor"/>
</linearGradient>
</defs>
</svg>
