<svg width="35" height="35" viewBox="0 0 35 35" fill="none" xmlns="http://www.w3.org/2000/svg">
<path d="M34.2857 32.2122L2.0898 0L0 2.07347L7.70612 9.77959C6.82449 11.4286 6.35102 13.2735 6.35102 15.1347V24.9306L3.08571 28.1959V29.8286H27.7551L32.2122 34.2857L34.2857 32.2122ZM9.61633 26.5633V15.1347C9.61633 14.1388 9.79592 13.1592 10.1714 12.2449L24.4898 26.5633H9.61633ZM14.5143 31.4612H21.0449C21.0449 32.3272 20.7009 33.1578 20.0885 33.7701C19.4761 34.3825 18.6456 34.7265 17.7796 34.7265C16.9136 34.7265 16.083 34.3825 15.4707 33.7701C14.8583 33.1578 14.5143 32.3272 14.5143 31.4612ZM11.7224 5.48571C12.5878 4.93061 13.5347 4.52245 14.5143 4.17959C14.5143 4.01633 14.5143 3.86939 14.5143 3.70612C14.5143 2.84011 14.8583 2.00957 15.4707 1.3972C16.083 0.784839 16.9136 0.440816 17.7796 0.440816C18.6456 0.440816 19.4761 0.784839 20.0885 1.3972C20.7009 2.00957 21.0449 2.84011 21.0449 3.70612C21.0449 3.86939 21.0449 4.01633 21.0449 4.17959C25.8939 5.61633 29.2082 10.0735 29.2082 15.1347V22.9714L25.9429 19.7061V15.1347C25.9429 12.9697 25.0828 10.8933 23.5519 9.36239C22.021 7.83149 19.9446 6.97143 17.7796 6.97143C16.5061 6.97143 15.249 7.29796 14.1224 7.88571L11.7224 5.48571Z" fill="#989898"/>
</svg>
