<svg xmlns="http://www.w3.org/2000/svg" width="45" height="44" viewBox="0 0 45 44" fill="none"><g clip-path="url(#a)"><path fill="currentColor" d="m43.836 17.603-2.254-2.259L26.933.668 26.92.655a2.251 2.251 0 0 0-3.188.013l-.014.014a2.26 2.26 0 0 0 .014 3.193l.677.654-10.03 9.935a22.498 22.498 0 0 0-11.268 1.49 2.26 2.26 0 0 0-1.442 1.624 2.258 2.258 0 0 0 .654 2.055l9.574 9.59-9.14 9.138L.5 44l5.641-2.256 9.136-9.134 9.583 9.6a2.248 2.248 0 0 0 2.096.587 2.255 2.255 0 0 0 1.622-1.444 22.6 22.6 0 0 0 1.487-11.288l9.917-9.935.654.677a2.26 2.26 0 0 0 3.2 0 2.266 2.266 0 0 0 0-3.204ZM25.918 27.695a2.26 2.26 0 0 0-.564 2.259c.53 2.09.53 4.278 0 6.367L8.183 19.114c2.085-.53 4.269-.53 6.356 0a2.252 2.252 0 0 0 2.254-.564L27.588 7.713l9.15 9.168-10.82 10.814Z"/></g><defs><clipPath id="a"><path fill="currentColor" d="M.5 0h44v44H.5z"/></clipPath></defs></svg>
