<svg width="34" height="34" viewBox="0 0 34 34" fill="none" xmlns="http://www.w3.org/2000/svg">
<path d="M0 4.43939L2.26166 2.1954L31.8046 31.7383L29.5606 34L21.0264 25.4658L16.4147 30.0774C12.9692 33.5229 7.36806 33.5229 3.92257 30.0774C0.477069 26.6319 0.477069 21.0308 3.92257 17.5853L6.55528 14.9526C6.53761 16.4015 6.76731 17.8503 7.26205 19.2462L6.4316 20.0767C4.34663 22.144 4.34663 25.5011 6.4316 27.5684C8.49889 29.6534 11.856 29.6534 13.9233 27.5684L18.5527 22.9744L15.6903 20.1297C15.6726 20.5537 15.4959 20.9955 15.1779 21.3312C14.4888 22.0203 13.3579 22.0203 12.6688 21.3312C10.8136 19.4582 9.94777 16.9845 10.1068 14.5639L0 4.43939ZM18.9237 2.58412C22.3692 -0.861374 27.9704 -0.861374 31.4159 2.58412C34.8614 6.02962 34.8614 11.6308 31.4159 15.0763L28.7832 17.709C28.8008 16.2601 28.5711 14.8112 28.0764 13.433L28.9068 12.5849C30.9918 10.5176 30.9918 7.16045 28.9068 5.09315C26.8395 3.00819 23.4824 3.00819 21.4151 5.09315L15.5312 10.977L13.0399 8.46797L18.9237 2.58412ZM20.1606 11.3304C20.8497 10.6413 21.9805 10.6413 22.6696 11.3304C25.0903 13.7511 25.8147 17.2142 24.8429 20.271L21.6978 17.1436C21.6095 15.9421 21.097 14.7582 20.1606 13.8394C19.4361 13.1503 19.4361 12.0195 20.1606 11.3304Z" fill="currentColor"/>
</svg>
