<svg width="39" height="36" viewBox="0 0 39 36" fill="none" xmlns="http://www.w3.org/2000/svg">
<path fill-rule="evenodd" clip-rule="evenodd" d="M19.5 0C8.58 0 0 8.78689 0 19.9702C0 25.8281 2.34001 31.1535 5.98001 34.8813C7.28001 36.2126 9.62001 36.2126 11.18 35.1476C13.26 33.2837 16.38 32.2186 19.5 32.2186C22.88 32.2186 25.48 33.2837 27.82 35.1476C29.38 36.4789 31.46 36.2126 33.02 34.615C36.66 30.8873 39 25.8281 39 19.9702C38.74 9.05316 30.16 0 19.5 0ZM19.24 30.3547C13.26 30.3547 9.36002 25.8281 9.36002 20.2365C9.36002 14.6448 13.26 10.1182 19.24 10.1182C25.22 10.1182 29.12 14.6448 29.12 20.2365C29.12 25.8281 25.22 30.3547 19.24 30.3547Z" fill="#94979E"/>
</svg>
